Patient4_TMGait_0pt5_01_right_22_GRF.mot
version=1
nRows=46
nColumns=19
inDegrees=no
endheader
time	F1x	F1y	F1z	M1x	M1y	M1z	F2x	F2y	F2z	M2x	M2y	M2z	EC1x	EC1y	EC1z	EC2x	EC2y	EC2z
28.74	-4.8298	778.5272	61.923	-281.5932	-59.0542	726.732	4.0711	3.2733	3.4562	0.38317	3.2229	8.4576	-0.0592	0.0182	-0.0073	-0.0462	0.0165	0.9585
28.754	0.088202	767.4383	61.6118	-277.7551	-56.7768	716.1786	2.6913	2.9014	2.4092	0.49329	2.2072	6.4146	-0.0592	0.0182	-0.0073	-0.0462	0.0165	0.9585
28.768	4.7744	756.5194	61.1424	-273.8085	-54.3462	705.0634	1.5442	2.6173	1.4689	0.61276	1.3631	4.7316	-0.0592	0.0182	-0.0073	-0.0462	0.0165	0.9585
28.782	8.8241	747.0374	60.6096	-270.1858	-52.01	694.6268	0.68369	2.4324	0.71703	0.72386	0.73055	3.4883	-0.0592	0.0182	-0.0073	-0.0462	0.0165	0.9585
28.796	12.0092	740.019	60.1307	-267.2651	-49.9756	685.9634	0.090624	2.3405	0.17178	0.82011	0.30331	2.673	-0.0592	0.0182	-0.0073	-0.0462	0.0165	0.9585
28.81	14.2747	736.0994	59.8067	-265.3073	-48.3734	679.7952	-0.28355	2.3158	-0.19242	0.89746	0.052532	2.2091	-0.0592	0.0182	-0.0073	-0.0462	0.0165	0.9585
28.824	15.6992	735.431	59.6932	-264.4135	-47.2448	676.3618	-0.4925	2.3197	-0.41605	0.95055	-0.060677	1.9821	-0.0592	0.0182	-0.0073	-0.0462	0.0165	0.9585
28.838	16.472	737.6739	59.7957	-264.5111	-46.542	675.3991	-0.59281	2.3042	-0.5424	0.97007	-0.071119	1.8802	-0.0592	0.0182	-0.0073	-0.0462	0.0165	0.9585
28.852	16.8585	742.083	60.0785	-265.3796	-46.1481	676.2239	-0.62758	2.209	-0.6114	0.94051	-0.0085416	1.782	-0.0592	0.0182	-0.0073	-0.0462	0.0165	0.9585
28.866	17.1446	747.6863	60.4857	-266.7091	-45.9151	677.9295	-0.63302	1.9637	-0.65331	0.84022	0.10341	1.5666	-0.0592	0.0182	-0.0073	-0.0462	0.0165	0.9585
28.88	17.6003	753.4924	60.954	-268.1714	-45.6938	679.5957	-0.62942	1.4887	-0.69082	0.64349	0.24728	1.121	-0.0592	0.0182	-0.0073	-0.0462	0.0165	0.9585
28.894	18.4481	758.6505	61.4265	-269.4738	-45.3623	680.4513	-0.62938	0.71176	-0.73058	0.32498	0.40142	0.34986	-0.0592	0.0182	-0.0073	-0.0462	0.0165	0.9585
28.908	19.8557	762.5549	61.8594	-270.3961	-44.8308	679.9639	-0.63857	-0.41213	-0.76791	-0.13178	0.54248	-0.80912	-0.0592	0.0182	-0.0073	-0.0462	0.0165	0.9585
28.922	21.9241	764.8962	62.2238	-270.8133	-44.0425	677.8773	-0.64873	-1.8796	-0.78374	-0.72458	0.63671	-2.3644	-0.0592	0.0182	-0.0073	-0.0462	0.0165	0.9585
28.936	24.6693	765.6663	62.5041	-270.7016	-42.9752	674.2262	-0.65138	-3.5817	-0.74997	-1.4101	0.64632	-4.2001	-0.0592	0.0182	-0.0073	-0.0462	0.0165	0.9585
28.95	28.0302	765.1077	62.7054	-270.1262	-41.6462	669.2893	-0.62842	-5.2596	-0.62223	-2.0823	0.51669	-6.038	-0.0592	0.0182	-0.0073	-0.0462	0.0165	0.9585
28.964	31.8742	763.6387	62.8559	-269.2149	-40.112	663.5245	-0.55354	-6.4545	-0.3477	-2.5516	0.18404	-7.379	-0.0592	0.0182	-0.0073	-0.0462	0.0165	0.9585
28.978	36.0063	761.7251	63.0104	-268.1123	-38.4661	657.4411	-0.38516	-6.4478	0.14107	-2.5234	-0.42742	-7.4354	-0.0592	0.0182	-0.0073	-0.0462	0.0165	0.9585
28.992	40.1858	759.7162	63.2381	-266.9232	-36.8307	651.4439	-0.069703	-4.2158	0.90618	-1.5806	-1.3885	-5.0904	-0.0592	0.0182	-0.0073	-0.0462	0.0165	0.9585
29.006	44.1347	757.7109	63.6027	-265.6668	-35.3426	645.7183	0.43511	1.565	1.9924	0.81464	-2.7481	1.1011	-0.0592	0.0182	-0.0073	-0.0462	0.0165	0.9585
29.02	47.5834	755.428	64.12	-264.24	-34.1083	640.1029	1.1542	12.4248	3.3825	5.2843	-4.4799	12.8164	-0.0592	0.0182	-0.0073	-0.0462	0.0165	0.9585
29.034	50.3225	752.1635	64.7293	-262.4079	-33.1636	634.0514	1.989	29.9648	4.9722	12.4751	-6.413	31.8059	-0.0592	0.0182	-0.0073	-0.0462	0.0165	0.9585
29.048	52.2399	746.8073	65.2757	-259.8117	-32.4456	626.6499	2.5683	55.5559	6.5442	22.9327	-8.1478	59.5621	-0.0592	0.0182	-0.0073	-0.0462	0.0165	0.9585
29.062	53.3438	737.9412	65.5216	-256.0015	-31.7905	616.6981	2.1575	89.74	7.7296	36.8584	-8.9803	96.6847	-0.0592	0.0182	-0.0073	-0.0462	0.0165	0.9585
29.076	53.7184	724.0406	65.1817	-250.4987	-30.9727	602.9	-0.25789	131.4584	8.0473	53.7946	-7.9866	142.0445	-0.0592	0.0182	-0.0073	-0.0462	0.0165	0.9585
29.09	53.4745	703.684	63.9893	-242.8596	-29.772	584.0521	-5.0849	177.5633	6.9807	72.4333	-4.476	192.2238	-0.0592	0.0182	-0.0073	-0.0462	0.0165	0.9585
29.104	52.7029	675.7754	61.7855	-232.7412	-28.0528	559.238	-11.4815	223.5919	4.3258	90.9489	1.3799	242.2842	-0.0592	0.0182	-0.0073	-0.0462	0.0165	0.9585
29.118	51.4203	639.7898	58.5755	-219.98	-25.8277	528.0402	-18.2432	265.9508	0.38445	107.8874	8.7099	288.1663	-0.0592	0.0182	-0.0073	-0.0462	0.0165	0.9585
29.132	49.6098	595.923	54.5082	-204.6409	-23.2229	490.6351	-24.4564	303.6154	-4.3366	122.8342	16.5792	328.6228	-0.0592	0.0182	-0.0073	-0.0462	0.0165	0.9585
29.146	47.2395	545.0588	49.7849	-187.012	-20.3998	447.7654	-29.6521	337.6599	-9.2941	136.2245	24.2116	364.7629	-0.0592	0.0182	-0.0073	-0.0462	0.0165	0.9585
29.16	44.2386	488.6077	44.5563	-167.557	-17.4819	400.5983	-33.7503	370.094	-14.1044	148.8608	31.1628	398.7542	-0.0592	0.0182	-0.0073	-0.0462	0.0165	0.9585
29.174	40.4959	428.3356	38.9495	-146.8588	-14.5889	350.5904	-36.8965	403.0719	-18.6228	161.5861	37.3323	432.9289	-0.0592	0.0182	-0.0073	-0.0462	0.0165	0.9585
29.188	35.9022	366.2064	33.1025	-125.5671	-11.849	299.35	-39.3802	438.4811	-22.9786	175.1114	42.9664	469.3538	-0.0592	0.0182	-0.0073	-0.0462	0.0165	0.9585
29.202	30.4086	304.2835	27.22	-104.3652	-9.4237	248.5397	-41.5147	477.5644	-27.4932	189.8763	48.5272	509.3987	-0.0592	0.0182	-0.0073	-0.0462	0.0165	0.9585
29.216	24.1114	244.6916	21.556	-83.9619	-7.4623	199.8439	-43.5737	520.5412	-32.5476	205.9139	54.514	553.3465	-0.0592	0.0182	-0.0073	-0.0462	0.0165	0.9585
29.23	17.3374	189.52	16.3842	-65.0635	-6.0501	154.8934	-45.7716	566.4575	-38.3663	222.8121	61.233	600.2418	-0.0592	0.0182	-0.0073	-0.0462	0.0165	0.9585
29.244	10.6254	140.6094	11.9358	-48.2985	-5.1653	115.1066	-48.1919	613.4328	-44.9088	239.8276	68.6689	648.1253	-0.0592	0.0182	-0.0073	-0.0462	0.0165	0.9585
29.258	4.5863	99.2079	8.3299	-34.0972	-4.6709	81.434	-50.7633	659.1096	-51.8271	256.0707	76.4348	694.5246	-0.0592	0.0182	-0.0073	-0.0462	0.0165	0.9585
29.272	-0.28003	65.7634	5.5644	-22.6162	-4.3783	54.1995	-53.2787	701.0161	-58.5844	270.6438	83.9056	736.8343	-0.0592	0.0182	-0.0073	-0.0462	0.0165	0.9585
29.286	-3.6654	40.0202	3.535	-13.7701	-4.0903	33.1902	-55.486	736.9286	-64.636	282.7668	90.4363	772.7125	-0.0592	0.0182	-0.0073	-0.0462	0.0165	0.9585
29.3	-5.45	21.2263	2.0847	-7.3037	-3.6476	17.8102	-57.1805	765.1376	-69.5444	291.8649	95.516	800.3674	-0.0592	0.0182	-0.0073	-0.0462	0.0165	0.9585
29.314	-5.7762	8.3696	1.057	-2.8735	-2.9906	7.2472	-58.218	784.5954	-73.0314	297.6187	98.8285	818.7035	-0.0592	0.0182	-0.0073	-0.0462	0.0165	0.9585
29.328	-5.13	0.37811	0.36207	-0.11477	-2.2309	0.64214	-58.5066	795.0613	-74.9799	300.0112	100.247	827.4641	-0.0592	0.0182	-0.0073	-0.0462	0.0165	0.9585
29.342	-4.0487	-3.8799	-0.049952	1.3574	-1.5267	-2.9089	-58.0037	797.1541	-75.424	299.3433	99.8207	827.2776	-0.0592	0.0182	-0.0073	-0.0462	0.0165	0.9585
29.356	-2.8906	-5.5295	-0.25226	1.9273	-0.95062	-4.3113	-56.726	792.3078	-74.5212	296.2112	97.7428	819.6222	-0.0592	0.0182	-0.0073	-0.0462	0.0165	0.9585
29.37	-1.8548	-5.5537	-0.30978	1.9317	-0.52661	-4.3707	-54.7338	782.563	-72.5099	291.4255	94.3011	806.5863	-0.0592	0.0182	-0.0073	-0.0462	0.0165	0.9585
